<?xml version="1.0" standalone="no"?>
<!DOCTYPE svg PUBLIC "-//W3C//DTD SVG 20010904//EN"
 "http://www.w3.org/TR/2001/REC-SVG-20010904/DTD/svg10.dtd">
<svg version="1.0" xmlns="http://www.w3.org/2000/svg"
 width="622.000000pt" height="980.000000pt" viewBox="0 0 622.000000 980.000000"
 preserveAspectRatio="xMidYMid meet">
<metadata>
Created by potrace 1.16, written by Peter Selinger 2001-2019
</metadata>
<g transform="translate(0.000000,980.000000) scale(0.100000,-0.100000)"
fill="#000000" stroke="none">
<path d="M2240 9790 c-120 -8 -204 -25 -344 -71 -106 -35 -338 -156 -429 -224
-329 -245 -551 -595 -628 -988 -30 -151 -38 -421 -39 -1217 l0 -705 -83 -29
c-387 -135 -626 -412 -704 -816 -15 -83 -16 -92 -1 -106 28 -28 94 -33 444
-34 l341 0 7 -1932 c8 -2124 12 -2323 50 -2463 78 -286 217 -528 425 -735 186
-185 381 -308 629 -394 214 -74 160 -71 1192 -71 1015 0 987 -1 1180 62 512
167 891 546 1060 1063 34 102 42 142 50 258 6 80 14 968 20 2137 5 1100 9
2017 10 2038 l0 37 401 0 400 0 -6 48 c-34 240 -99 409 -222 570 -116 152
-264 255 -479 332 l-91 33 -7 786 c-7 836 -14 1028 -41 1156 -40 195 -131 406
-247 578 -87 129 -294 333 -423 419 -188 125 -439 231 -610 259 -84 13 -1663
21 -1855 9z m1095 -2600 c276 -14 406 -26 575 -56 341 -59 660 -159 901 -280
l91 -45 -7 -37 c-8 -45 -374 -1154 -384 -1165 -4 -4 -65 2 -137 13 -644 97
-1956 93 -2598 -10 -38 -6 -70 -9 -71 -8 -4 5 -382 1150 -388 1179 -6 25 -1
29 131 91 192 92 327 140 557 197 199 50 525 103 760 124 87 8 380 6 570 -3z
m-1300 -4335 c719 -71 1491 -69 2191 6 106 11 209 19 230 17 37 -3 41 -6 71
-68 18 -36 109 -296 204 -579 129 -386 170 -518 162 -530 -15 -24 -171 -104
-314 -160 -278 -110 -621 -186 -1004 -223 -179 -17 -764 -17 -940 0 -365 36
-725 115 -985 219 -138 55 -287 128 -316 155 l-22 19 197 590 196 590 40 -5
c22 -3 153 -17 290 -31z"/>
</g>
</svg>
